<?xml version="1.0" standalone="no"?>
<!DOCTYPE svg PUBLIC "-//W3C//DTD SVG 20010904//EN"
 "http://www.w3.org/TR/2001/REC-SVG-20010904/DTD/svg10.dtd">
<svg version="1.0" xmlns="http://www.w3.org/2000/svg"
 width="1200.000000pt" height="1154.000000pt" viewBox="0 0 1200.000000 1154.000000"
 preserveAspectRatio="xMidYMid meet">
<metadata>
Created by potrace 1.16, written by Peter Selinger 2001-2019
</metadata>
<g transform="translate(0.000000,1154.000000) scale(0.100000,-0.100000)"
fill="#000000" stroke="none">
<path d="M5840 9655 c-398 -42 -870 -174 -1177 -328 -293 -147 -503 -302 -641
-472 -103 -126 -164 -278 -202 -494 -102 -594 -357 -1221 -699 -1720 -297
-435 -533 -709 -1133 -1316 -247 -250 -327 -338 -431 -477 -154 -205 -295
-495 -345 -708 -6 -25 -13 -56 -17 -70 -12 -55 -35 -269 -35 -337 0 -155 45
-415 102 -578 29 -84 101 -225 158 -309 50 -74 146 -175 199 -208 l30 -20 21
34 c11 18 20 37 20 41 0 15 138 285 176 344 62 97 72 103 191 103 179 0 581
56 847 117 61 14 127 29 146 33 132 30 358 105 602 201 192 76 673 312 833
408 85 51 125 70 125 59 0 -2 -10 -32 -21 -68 -12 -36 -25 -78 -29 -95 -49
-182 -62 -236 -79 -333 -63 -347 -51 -803 28 -1102 42 -159 102 -318 154 -410
87 -156 258 -380 289 -380 7 0 9 17 4 53 -35 276 -45 440 -28 451 13 8 24 -5
96 -114 141 -215 306 -390 511 -544 93 -70 204 -141 362 -228 52 -29 220 -98
297 -122 108 -34 127 -39 133 -32 4 3 -3 30 -15 59 -47 116 -103 331 -132 500
-15 93 -25 327 -13 327 6 0 62 -24 124 -54 125 -60 295 -115 440 -143 76 -14
145 -18 359 -18 251 0 272 2 389 28 69 15 129 31 135 37 6 6 -5 24 -30 52 -61
67 -149 197 -192 284 -39 79 -78 201 -68 211 3 3 33 0 68 -6 35 -6 137 -16
228 -23 142 -10 187 -9 320 5 222 25 427 73 437 104 2 6 -22 25 -54 43 -81 46
-233 149 -233 158 0 5 85 14 188 20 384 25 687 74 907 147 134 44 148 58 98
91 -73 47 -363 312 -363 331 0 8 66 13 223 16 293 7 461 41 370 75 -259 96
-368 153 -588 307 -208 145 -392 355 -488 555 -216 449 -207 1031 25 1539 96
212 308 581 334 581 6 0 21 -33 33 -72 13 -40 27 -83 32 -96 5 -13 9 -33 9
-46 0 -13 7 -29 15 -36 17 -14 23 -3 60 126 45 156 58 287 52 527 -6 196 -5
217 9 206 24 -20 157 -199 195 -263 18 -31 38 -55 44 -53 14 5 6 234 -10 312
-29 140 -74 276 -139 417 -30 66 -32 80 -9 71 22 -8 231 -130 265 -154 28 -20
48 -24 48 -10 0 20 -59 189 -86 246 -34 74 -92 165 -172 270 -33 44 -59 82
-56 84 2 2 23 -2 46 -9 48 -15 336 -110 356 -117 6 -3 12 1 12 8 0 28 -108
158 -254 307 l-150 152 35 0 c78 0 456 -66 574 -100 83 -24 75 -23 75 -5 0 22
-158 156 -295 249 -154 106 -263 168 -472 266 -199 95 -196 93 -201 108 -2 7
23 10 85 7 48 -3 203 -7 343 -10 140 -2 342 -12 448 -20 106 -9 211 -15 235
-13 l42 3 -86 72 c-196 165 -486 311 -784 394 -44 12 -84 26 -89 30 -5 5 6 16
24 26 92 51 313 190 369 234 107 81 243 211 233 221 -5 5 -64 1 -148 -12 -76
-12 -186 -28 -244 -35 -58 -8 -141 -19 -185 -25 -280 -40 -511 -55 -825 -55
-328 0 -386 7 -780 88 -276 58 -453 83 -763 107 -171 13 -704 10 -847 -5z
m221 -829 c64 -15 198 -61 261 -89 72 -33 267 -100 387 -134 21 -6 -9 -34
-106 -98 -82 -55 -84 -57 -77 -88 12 -57 6 -204 -11 -264 -57 -199 -220 -340
-516 -447 -25 -9 -54 -22 -64 -29 -21 -16 -21 -16 151 -168 284 -248 379 -339
423 -403 l26 -40 -3 -290 c-5 -530 -30 -760 -114 -1051 -28 -96 -108 -255
-173 -341 -50 -66 -215 -229 -296 -291 -20 -15 -83 -66 -140 -114 -291 -239
-758 -566 -1019 -711 -25 -14 -63 -36 -85 -48 -22 -13 -80 -46 -130 -73 -49
-27 -103 -57 -120 -67 -16 -9 -50 -29 -75 -42 -25 -14 -63 -36 -85 -48 -63
-36 -433 -223 -500 -252 -33 -15 -85 -38 -115 -52 -175 -78 -535 -200 -740
-249 -314 -76 -716 -132 -727 -101 -4 13 218 124 342 172 106 41 296 110 365
132 60 20 132 47 380 140 156 59 189 73 338 141 35 16 65 29 68 29 15 0 318
157 423 219 545 323 1073 837 1436 1396 91 140 263 425 325 540 24 44 72 129
107 188 35 60 63 110 63 113 0 2 33 59 73 127 41 67 92 156 115 197 22 41 61
111 86 155 25 44 46 86 46 93 0 34 -253 267 -530 487 -192 153 -337 265 -399
309 -24 17 -91 68 -149 114 -103 80 -125 92 -137 72 -11 -18 13 -46 102 -121
48 -40 108 -91 133 -114 64 -56 101 -88 210 -180 86 -72 248 -212 260 -225 3
-3 57 -51 120 -106 63 -56 141 -129 174 -163 49 -53 57 -66 53 -90 -6 -27 -46
-99 -147 -261 -30 -47 -94 -152 -143 -235 -50 -82 -118 -195 -152 -250 -34
-55 -89 -145 -122 -200 -312 -520 -448 -705 -738 -1004 -168 -172 -342 -328
-495 -442 -267 -199 -525 -350 -815 -476 -44 -20 -98 -43 -120 -53 -89 -40
-275 -114 -350 -141 -44 -15 -118 -42 -165 -59 -47 -18 -128 -47 -180 -65
-358 -126 -626 -245 -764 -337 -131 -88 -257 -235 -381 -445 -27 -46 -51 -83
-55 -83 -9 0 -65 89 -102 165 -42 83 -69 160 -97 275 -41 173 -45 205 -44 385
0 153 4 198 26 300 47 225 128 415 263 623 135 207 184 262 614 697 396 401
507 525 790 880 445 558 768 1232 900 1880 30 146 32 151 69 185 34 32 211
134 316 184 l40 19 100 -53 c199 -104 481 -246 520 -262 22 -9 61 -26 87 -37
l48 -20 14 27 c7 15 23 56 36 92 39 116 126 282 184 352 77 93 193 176 290
208 124 41 283 47 417 16z"/>
<path d="M5755 8678 c-81 -27 -156 -79 -203 -141 -48 -64 -55 -75 -81 -156
-72 -220 43 -439 275 -527 53 -20 85 -25 158 -25 265 0 466 185 466 429 0 200
-116 358 -310 421 -85 28 -221 28 -305 -1z m273 -86 c116 -44 199 -134 228
-247 46 -173 -88 -375 -274 -415 -138 -29 -304 56 -369 188 -25 50 -28 68 -28
152 0 84 3 102 28 152 34 70 110 140 180 167 68 26 170 27 235 3z"/>
<path d="M5829 8447 c-129 -68 -146 -237 -35 -335 67 -59 150 -64 233 -16 144
83 122 303 -36 359 -61 21 -111 19 -162 -8z"/>
<path d="M4644 7710 c-222 -56 -292 -114 -443 -364 -22 -37 -41 -70 -41 -73 0
-9 -193 -299 -278 -418 -92 -127 -215 -287 -268 -345 -17 -19 -93 -105 -169
-190 -76 -85 -381 -398 -679 -695 -550 -548 -653 -657 -763 -800 -252 -333
-401 -691 -428 -1037 -7 -85 3 -298 14 -298 4 0 13 48 20 108 12 103 66 351
95 436 52 152 139 336 231 488 157 257 297 414 970 1083 880 875 1059 1087
1480 1756 83 131 154 201 302 296 145 93 140 100 -43 53z"/>
</g>
</svg>
